<svg data-logo="logo" xmlns="http://www.w3.org/2000/svg" viewBox="0 0 199 43">
        <g style="opacity: 1;" id="logogram" transform="translate(0, 1) rotate(0)"><path d="M39.3509 32.43C45.9784 32.43 51.3509 27.0574 51.3509 20.43C51.3509 13.8026 45.9784 8.42999 39.3509 8.42999C33.1311 8.42999 28.0165 13.1621 27.4109 19.2224C24.9593 18.1136 22.3106 17.4509 19.5981 17.2765C21.1104 7.72911 29.3783 0.429993 39.3509 0.429993C50.3966 0.429993 59.3509 9.3843 59.3509 20.43C59.3509 31.0728 51.0379 39.774 40.5509 40.3946V40.43H27.3704V38.6845C27.3704 36.417 26.4352 34.2121 24.7214 32.5636C23.0026 30.9103 20.6417 29.9573 18.1509 29.9573C15.6601 29.9573 13.2992 30.9103 11.5804 32.5636C9.86652 34.2121 8.93137 36.417 8.93137 38.6845V40.43H0.150879V38.6418C0.150879 33.9671 2.09092 29.5205 5.48429 26.2697C8.7691 23.123 13.1556 21.3402 17.7219 21.2349C17.8647 21.2316 18.0077 21.23 18.1509 21.23C18.2617 21.23 18.3724 21.231 18.4831 21.233C23.0841 21.3151 27.5095 23.1007 30.8175 26.2698C32.65 28.0253 34.0586 30.1295 34.9668 32.43H39.3509Z" fill="#FFFFFF"></path><path d="M21.8278 35.3544C22.803 36.2025 23.3509 37.3527 23.3509 38.552V40.43H12.9509V38.552C12.9509 37.3527 13.4987 36.2025 14.4739 35.3544C15.4491 34.5064 16.7718 34.03 18.1509 34.03C19.53 34.03 20.8526 34.5064 21.8278 35.3544Z" fill="#5233DD"></path><path d="M43.9327 18.4663C42.4867 18.4663 41.3145 17.2941 41.3145 15.8482V15.1936C41.3145 14.1091 40.4354 13.23 39.3509 13.23C38.2664 13.23 37.3873 14.1091 37.3873 15.1936V15.8482C37.3873 17.2941 36.2151 18.4663 34.7691 18.4663H34.1145C33.03 18.4663 32.1509 19.3455 32.1509 20.43C32.1509 21.5145 33.03 22.3936 34.1145 22.3936H34.7691C36.2151 22.3936 37.3873 23.5658 37.3873 25.0118V25.6664C37.3873 26.7508 38.2664 27.63 39.3509 27.63C40.4354 27.63 41.3145 26.7508 41.3145 25.6664V25.0118C41.3145 23.5658 42.4867 22.3936 43.9327 22.3936H44.5872C45.6717 22.3936 46.5509 21.5145 46.5509 20.43C46.5509 19.3455 45.6717 18.4663 44.5872 18.4663H43.9327Z" fill="#5233DD"></path><path d="M11.351 3.63004C11.351 5.39732 12.7837 6.82998 14.5509 6.82998H15.3509C16.6764 6.82998 17.7509 7.9045 17.7509 9.22998C17.7509 10.5555 16.6764 11.63 15.3509 11.63H14.5509C12.7837 11.63 11.351 13.0626 11.351 14.8299V15.63C11.351 16.9555 10.2765 18.03 8.95099 18.03C7.62551 18.03 6.55099 16.9555 6.55099 15.63L6.55099 14.83C6.55099 13.0627 5.1183 11.63 3.35099 11.63H2.55088C1.2254 11.63 0.150879 10.5555 0.150879 9.22998C0.150879 7.9045 1.2254 6.82998 2.55088 6.82998H3.351C5.1183 6.82998 6.55099 5.3973 6.55099 3.62999L6.55099 2.82999C6.55099 1.50451 7.62551 0.429993 8.95099 0.429993C10.2765 0.429993 11.351 1.50451 11.351 2.82999V3.63004Z" fill="#5233DD"></path></g>
        <g style="opacity: 1;" id="logotype" transform="translate(66, 2)"><path fill="#ffffff" d="M19.55 32L10.56 7.12L14.90 7.12L21.30 25.39L27.69 7.12L32.03 7.12L23.04 32L19.55 32ZM8.22 32L8.22 7.12L12.55 7.12L13.33 24.92L13.33 32L8.22 32ZM29.26 24.92L30.05 7.12L34.39 7.12L34.39 32L29.26 32L29.26 24.92ZM47.91 27.83L47.91 27.83L47.91 19.59Q47.91 18.70 47.62 18.06Q47.33 17.42 46.72 17.06Q46.11 16.70 45.16 16.70L45.16 16.70Q44.33 16.70 43.74 16.99Q43.14 17.27 42.81 17.79Q42.49 18.31 42.49 19.01L42.49 19.01L37.57 19.01Q37.57 17.83 38.11 16.77Q38.66 15.71 39.70 14.90Q40.75 14.09 42.19 13.63Q43.63 13.17 45.43 13.17L45.43 13.17Q47.58 13.17 49.26 13.88Q50.93 14.60 51.90 16.04Q52.86 17.47 52.86 19.63L52.86 19.63L52.86 27.54Q52.86 29.06 53.05 30.03Q53.24 30.99 53.60 31.71L53.60 31.71L53.60 32L48.62 32Q48.27 31.25 48.09 30.11Q47.91 28.98 47.91 27.83ZM45.70 20.74L48.56 20.74L48.59 23.52L45.84 23.52Q44.86 23.52 44.15 23.75Q43.43 23.97 42.97 24.37Q42.51 24.77 42.29 25.30Q42.08 25.83 42.08 26.46L42.08 26.46Q42.08 27.10 42.37 27.60Q42.66 28.10 43.21 28.39Q43.75 28.67 44.49 28.67L44.49 28.67Q45.60 28.67 46.42 28.22Q47.24 27.78 47.69 27.13Q48.15 26.48 48.16 25.90L48.16 25.90L49.46 27.98Q49.19 28.68 48.72 29.44Q48.25 30.19 47.53 30.85Q46.81 31.50 45.80 31.92Q44.80 32.34 43.41 32.34L43.41 32.34Q41.65 32.34 40.22 31.63Q38.80 30.92 37.97 29.67Q37.14 28.41 37.14 26.80L37.14 26.80Q37.14 25.35 37.69 24.22Q38.23 23.10 39.30 22.32Q40.37 21.54 41.98 21.14Q43.58 20.74 45.70 20.74L45.70 20.74ZM60.54 13.51L60.85 17.46L60.85 32L55.92 32L55.92 13.51L60.54 13.51ZM60.13 22.10L60.13 22.10L58.80 22.10Q58.80 20.05 59.32 18.41Q59.85 16.76 60.81 15.59Q61.77 14.41 63.09 13.79Q64.42 13.17 66.06 13.17L66.06 13.17Q67.36 13.17 68.43 13.54Q69.51 13.92 70.29 14.74Q71.07 15.56 71.48 16.91Q71.90 18.26 71.90 20.21L71.90 20.21L71.90 32L66.95 32L66.95 20.19Q66.95 18.96 66.61 18.28Q66.26 17.59 65.61 17.31Q64.95 17.03 63.99 17.03L63.99 17.03Q63.00 17.03 62.27 17.42Q61.55 17.82 61.08 18.51Q60.61 19.20 60.37 20.12Q60.13 21.05 60.13 22.10ZM86.24 17.78L86.72 13.51L91.18 13.51L91.18 31.38Q91.18 33.91 90.06 35.68Q88.94 37.45 86.94 38.37Q84.94 39.28 82.30 39.28L82.30 39.28Q81.13 39.28 79.84 38.97Q78.55 38.67 77.38 38.02Q76.21 37.37 75.43 36.38L75.43 36.38L77.60 33.47Q78.45 34.46 79.58 35.02Q80.71 35.57 82.07 35.57L82.07 35.57Q83.41 35.57 84.33 35.08Q85.25 34.60 85.75 33.67Q86.24 32.73 86.24 31.42L86.24 31.42L86.24 17.78ZM74.28 22.98L74.28 22.98L74.28 22.62Q74.28 20.50 74.80 18.76Q75.32 17.03 76.29 15.78Q77.25 14.53 78.64 13.85Q80.02 13.17 81.77 13.17L81.77 13.17Q83.61 13.17 84.86 13.85Q86.11 14.53 86.91 15.79Q87.71 17.05 88.17 18.75Q88.62 20.45 88.88 22.46L88.88 22.46L88.88 23.25Q88.62 25.18 88.11 26.84Q87.59 28.50 86.76 29.74Q85.92 30.97 84.68 31.66Q83.44 32.34 81.73 32.34L81.73 32.34Q80.02 32.34 78.65 31.64Q77.27 30.94 76.30 29.68Q75.32 28.41 74.80 26.70Q74.28 24.99 74.28 22.98ZM79.20 22.62L79.20 22.62L79.20 22.98Q79.20 24.12 79.42 25.11Q79.65 26.10 80.12 26.86Q80.59 27.63 81.30 28.04Q82.01 28.46 82.98 28.46L82.98 28.46Q84.33 28.46 85.18 27.89Q86.04 27.32 86.47 26.31Q86.89 25.30 86.96 23.98L86.96 23.98L86.96 21.75Q86.93 20.67 86.67 19.81Q86.41 18.94 85.95 18.33Q85.49 17.71 84.76 17.37Q84.02 17.03 83.01 17.03L83.01 17.03Q82.04 17.03 81.33 17.47Q80.62 17.90 80.15 18.65Q79.68 19.40 79.44 20.42Q79.20 21.44 79.20 22.62ZM104.36 27.83L104.36 27.83L104.36 19.59Q104.36 18.70 104.07 18.06Q103.78 17.42 103.17 17.06Q102.57 16.70 101.61 16.70L101.61 16.70Q100.79 16.70 100.19 16.99Q99.59 17.27 99.27 17.79Q98.94 18.31 98.94 19.01L98.94 19.01L94.02 19.01Q94.02 17.83 94.57 16.77Q95.12 15.71 96.16 14.90Q97.20 14.09 98.64 13.63Q100.09 13.17 101.88 13.17L101.88 13.17Q104.04 13.17 105.71 13.88Q107.39 14.60 108.35 16.04Q109.32 17.47 109.32 19.63L109.32 19.63L109.32 27.54Q109.32 29.06 109.51 30.03Q109.69 30.99 110.05 31.71L110.05 31.71L110.05 32L105.08 32Q104.72 31.25 104.54 30.11Q104.36 28.98 104.36 27.83ZM102.16 20.74L105.01 20.74L105.04 23.52L102.29 23.52Q101.32 23.52 100.60 23.75Q99.88 23.97 99.42 24.37Q98.96 24.77 98.75 25.30Q98.53 25.83 98.53 26.46L98.53 26.46Q98.53 27.10 98.82 27.60Q99.11 28.10 99.66 28.39Q100.21 28.67 100.94 28.67L100.94 28.67Q102.05 28.67 102.87 28.22Q103.69 27.78 104.15 27.13Q104.60 26.48 104.62 25.90L104.62 25.90L105.92 27.98Q105.64 28.68 105.17 29.44Q104.70 30.19 103.99 30.85Q103.27 31.50 102.26 31.92Q101.25 32.34 99.87 32.34L99.87 32.34Q98.11 32.34 96.68 31.63Q95.25 30.92 94.42 29.67Q93.59 28.41 93.59 26.80L93.59 26.80Q93.59 25.35 94.14 24.22Q94.69 23.10 95.76 22.32Q96.82 21.54 98.43 21.14Q100.04 20.74 102.16 20.74L102.16 20.74ZM111.11 7.12L117.01 7.12L121.69 15.80L126.38 7.12L132.24 7.12L125.01 19.46L132.43 32L126.51 32L121.69 23.15L116.87 32L110.93 32L118.38 19.46L111.11 7.12Z"></path></g>
        
      </svg>